<svg xmlns="http://www.w3.org/2000/svg" width="176" height="176" viewBox="0 0 176 176">
    <g fill="none" fill-rule="evenodd">
        <path fill="#A9E9E9" d="M162.73 80.927a50.716 50.716 0 0 0 4.155-20.165c0-28.108-22.786-50.895-50.895-50.895a50.66 50.66 0 0 0-30.084 9.844c-2.489 1.717-4.61 3.367-6.434 4.957 26.144 2.134 46.697 24.026 46.697 50.72a50.72 50.72 0 0 1-4.154 20.166c-8.555 19.58-11.168 24.133-14.616 29.173L115.133 169h44.355l-11.374-58.9c3.448-5.04 6.062-9.593 14.617-29.173h-.001z"/>
        <path fill="#E5F5F7" d="M85.907 126.358H60.12l-1.358-32.515-9.048-1.471 14.477-25.75s-1.584-12.666 2.94-23.963c2.031-5.071 4.242-10.934 12.34-17.991a51.805 51.805 0 0 0-4.197-.173 50.663 50.663 0 0 0-30.085 9.844C31.66 43.67 28.905 51.073 26.417 57.286c-4.525 11.298-2.94 23.964-2.94 23.964L9 107l9.048 1.47 1.357 32.515H45.19L46.93 169h68.203-23.849l-5.377-42.642z"/>
        <path stroke="#A3DFDA" stroke-linecap="round" stroke-linejoin="round" stroke-width="2" d="M10 9h20"/>
        <path fill="#E5F5F7" d="M153 156a6 6 0 1 1-12 0 6 6 0 0 1 12 0"/>
        <path stroke="#2D848A" stroke-linecap="round" stroke-linejoin="round" stroke-width="2" d="M147 156h19.885"/>
        <path stroke="#A3DFDA" stroke-linecap="round" stroke-linejoin="round" stroke-width="2" d="M10 17h20M10 25h34M10 33h34M10 50h34M10 58h34M10 66h34M10 74h34M10 82h34M38.111 17h6V9h-6z"/>
        <path fill="#A9E9E9" d="M35.882 97.188a5.33 5.33 0 1 1-10.658 0 5.33 5.33 0 0 1 10.658 0"/>
        <path stroke="#2D848A" stroke-linecap="round" stroke-linejoin="round" stroke-width="2" d="M32 97h12"/>
        <path fill="#2D848A" d="M170 60a1 1 0 0 1 1 1v6a1 1 0 1 1-2 0v-6a1 1 0 0 1 1-1zm-56-3a1 1 0 0 1 1 1v12a1 1 0 1 1-2 0V58a1 1 0 0 1 1-1zm14-5a1 1 0 0 1 1 1v22a1 1 0 1 1-2 0V53a1 1 0 0 1 1-1zm-7 7a1 1 0 0 1 1 1v8a1 1 0 1 1-2 0v-8a1 1 0 0 1 1-1zm14-13a1 1 0 0 1 1 1v34a1 1 0 1 1-2 0V47a1 1 0 0 1 1-1zm7 10a1 1 0 0 1 1 1v14a1 1 0 1 1-2 0V57a1 1 0 0 1 1-1zm7 5a1 1 0 0 1 1 1v4a1 1 0 1 1-2 0v-4a1 1 0 0 1 1-1zm7-6a1 1 0 0 1 1 1v16a1 1 0 1 1-2 0V56a1 1 0 0 1 1-1zm7-3a1 1 0 0 1 1 1v22a1 1 0 1 1-2 0V53a1 1 0 0 1 1-1z"/>
        <path stroke="#2D848A" stroke-linecap="round" stroke-linejoin="round" stroke-width="2" d="M158 41h6v-8h-6z"/>
    </g>
</svg>
