<svg xmlns="http://www.w3.org/2000/svg" width="176" height="176" viewBox="0 0 176 176">
    <g fill="none" fill-rule="evenodd">
        <path fill="#E5F5F7" d="M10 131h64v-28H10z"/>
        <path stroke="#2D848A" stroke-linecap="round" stroke-linejoin="round" stroke-width="2" d="M89 109H17.959v45h32.052L61 165.366V154h28z"/>
        <path fill="#E5F5F7" d="M71 93.416c0 12.116 12.943 22.46 31.17 26.547L99.13 130l12.686-8.523c2.503.233 5.069.356 7.684.356 26.786 0 48.5-12.722 48.5-28.416S146.286 65 119.5 65 71 77.723 71 93.416z"/>
        <path fill="#2D848A" fill-rule="nonzero" d="M103.544 91.376h1.656c.864 0 1.524-.14 1.98-.42.456-.28.74-.78.852-1.5l.12-.768c.032-.288.048-.48.048-.576 0-.576-.2-.996-.6-1.26-.4-.264-1-.396-1.8-.396-.656 0-1.312.068-1.968.204a20.29 20.29 0 0 0-2.16.588l.408-2.616a10.917 10.917 0 0 1 5.328-1.368c1.472 0 2.588.34 3.348 1.02.76.68 1.14 1.612 1.14 2.796 0 .368-.032.712-.096 1.032l-.24 1.416c-.464 3.024-2.392 4.536-5.784 4.536l-.312 2.064H102.8l.744-4.752zm-1.176 9.648a.449.449 0 0 1-.312-.108.355.355 0 0 1-.12-.276v-.096l.408-2.448c.048-.336.24-.504.576-.504h2.064c.288 0 .432.12.432.36v.144l-.408 2.448c-.032.32-.224.48-.576.48h-2.064zm13.872-9.648h1.656c.864 0 1.524-.14 1.98-.42.456-.28.74-.78.852-1.5l.12-.768c.032-.288.048-.48.048-.576 0-.576-.2-.996-.6-1.26-.4-.264-1-.396-1.8-.396-.656 0-1.312.068-1.968.204a20.29 20.29 0 0 0-2.16.588l.408-2.616a10.917 10.917 0 0 1 5.328-1.368c1.472 0 2.588.34 3.348 1.02.76.68 1.14 1.612 1.14 2.796 0 .368-.032.712-.096 1.032l-.24 1.416c-.464 3.024-2.392 4.536-5.784 4.536l-.312 2.064h-2.664l.744-4.752zm-1.176 9.648a.449.449 0 0 1-.312-.108.355.355 0 0 1-.12-.276v-.096l.408-2.448c.048-.336.24-.504.576-.504h2.064c.288 0 .432.12.432.36v.144l-.408 2.448c-.032.32-.224.48-.576.48h-2.064zm13.872-9.648h1.656c.864 0 1.524-.14 1.98-.42.456-.28.74-.78.852-1.5l.12-.768c.032-.288.048-.48.048-.576 0-.576-.2-.996-.6-1.26-.4-.264-1-.396-1.8-.396-.656 0-1.312.068-1.968.204a20.29 20.29 0 0 0-2.16.588l.408-2.616a10.917 10.917 0 0 1 5.328-1.368c1.472 0 2.588.34 3.348 1.02.76.68 1.14 1.612 1.14 2.796 0 .368-.032.712-.096 1.032l-.24 1.416c-.464 3.024-2.392 4.536-5.784 4.536l-.312 2.064h-2.664l.744-4.752zm-1.176 9.648a.449.449 0 0 1-.312-.108.355.355 0 0 1-.12-.276v-.096l.408-2.448c.048-.336.24-.504.576-.504h2.064c.288 0 .432.12.432.36v.144l-.408 2.448c-.032.32-.224.48-.576.48h-2.064z"/>
        <path fill="#D7F2F0" d="M134 7H40.74v65h24v9l9.374-9H134z"/>
        <path fill="#FFF" d="M66 34h14V18H66z"/>
        <path stroke="#2D848A" stroke-linecap="round" stroke-linejoin="round" stroke-width="2" d="M62 30h14V14H62zM86 14h54M86 22h54M86 30h54M66 42h74M66 50h74M65.166 89.61c0 12.115 13.455 22.459 32.401 26.546L94 126.026l13.596-8.356c2.602.233 5.269.356 7.987.356 27.845 0 50.417-12.249 50.417-27.942C166 74.39 143.845 62 116 62"/>
        <path fill="#A9E9E9" d="M107 144c0-9.941 10.745-18 24-18s24 8.059 24 18-10.745 18-24 18-24-8.059-24-18"/>
        <path fill="#A9E9E9" d="M126.402 160.326L115 167.72l4.365-9.72z"/>
        <path fill="#FFF" d="M138 144.5a2.5 2.5 0 1 0 5 0 2.5 2.5 0 0 0-5 0M129 144.5a2.5 2.5 0 1 0 5 0 2.5 2.5 0 0 0-5 0M120 144.5a2.5 2.5 0 1 0 5 0 2.5 2.5 0 0 0-5 0"/>
        <path fill="#2D848A" fill-rule="nonzero" d="M41.52 122h3.552l-2.544 12.864h-2.616L41.52 122zm-2.088 18.76a.449.449 0 0 1-.312-.108.355.355 0 0 1-.12-.276v-.096l.408-2.448c.048-.336.24-.504.576-.504h2.064c.288 0 .432.12.432.36v.144l-.408 2.448c-.032.32-.224.48-.576.48h-2.064zM52.048 122H55.6l-2.544 12.864H50.44L52.048 122zm-2.088 18.76a.449.449 0 0 1-.312-.108.355.355 0 0 1-.12-.276v-.096l.408-2.448c.048-.336.24-.504.576-.504h2.064c.288 0 .432.12.432.36v.144l-.408 2.448c-.032.32-.224.48-.576.48H49.96zM62.576 122h3.552l-2.544 12.864h-2.616L62.576 122zm-2.088 18.76a.449.449 0 0 1-.312-.108.355.355 0 0 1-.12-.276v-.096l.408-2.448c.048-.336.24-.504.576-.504h2.064c.288 0 .432.12.432.36v.144l-.408 2.448c-.032.32-.224.48-.576.48h-2.064z"/>
    </g>
</svg>
