<svg xmlns="http://www.w3.org/2000/svg" width="176" height="176" viewBox="0 0 176 176">
    <g fill="none" fill-rule="evenodd">
        <path stroke="#2D848A" stroke-linecap="round" stroke-linejoin="round" stroke-width="2" d="M74 139c0-2.764 2.236-5 5-5" opacity=".4"/>
        <path stroke="#2D848A" stroke-linecap="round" stroke-linejoin="round" stroke-width="2" d="M67 141c0-2.764 1-8 4.5-10" opacity=".75"/>
        <path fill="#E5F5F7" d="M163.351 79l-27.678 27.678a6.52 6.52 0 0 1 0 9.225l-13.838 13.839-6.931 6.932a6.52 6.52 0 0 1-9.226 0L78 164.35c10.199 10.199 26.705 10.199 36.904 0l13.838-13.84 13.84-13.837 6.93-6.932 13.839-13.839c10.199-10.198 10.199-26.704 0-36.903"/>
        <path fill="#A9E9E9" d="M91 68.231C91 53.192 73.316 41 51.5 41 29.685 41 12 53.192 12 68.231c0 12.984 13.183 23.837 30.821 26.565L51.862 105l1.007-9.56C74.049 94.94 91 82.955 91 68.23"/>
        <path fill="#D7F2F0" d="M156.913 43.37c0-8.489-9.83-15.37-21.957-15.37C122.832 28 113 34.881 113 43.37c0 7.328 7.328 13.453 17.132 14.992l5.026 5.76.56-5.396c11.773-.282 21.196-7.047 21.196-15.356"/>
        <path stroke="#2D848A" stroke-linecap="round" stroke-linejoin="round" stroke-width="2" d="M36 56h60M36 64h60M36 72h22"/>
        <path fill="#A9E9E9" d="M159.68 75.03a6.918 6.918 0 0 0-9.792 0L132.03 92.887a6.918 6.918 0 0 0 0 9.792L136 107l28-27.3-4.32-4.67zM101.68 133.03a6.919 6.919 0 0 0-9.793 0L74.03 150.888a6.92 6.92 0 0 0 0 9.79L78.65 165 106 137l-4.32-3.97z"/>
        <path fill="#FFF" d="M141 43.5a2.5 2.5 0 1 0 5 0 2.5 2.5 0 0 0-5 0M132 43.5a2.5 2.5 0 1 0 5 0 2.5 2.5 0 0 0-5 0M123 43.5a2.5 2.5 0 1 0 5 0 2.5 2.5 0 0 0-5 0"/>
        <path fill="#E5F5F7" d="M87 87a8 8 0 1 1-16.001 0A8 8 0 0 1 87 87"/>
        <path fill="#A9E9E9" d="M153 29.5a5.5 5.5 0 1 1-11 0 5.5 5.5 0 0 1 11 0"/>
        <path fill="#2D848A" d="M61 132a1 1 0 0 1 1 1v6a1 1 0 1 1-2 0v-6a1 1 0 0 1 1-1zm-36-8a1 1 0 0 1 1 1v22a1 1 0 1 1-2 0v-22a1 1 0 0 1 1-1zm-6 7a1 1 0 0 1 1 1v8a1 1 0 1 1-2 0v-8a1 1 0 0 1 1-1zm12-13a1 1 0 0 1 1 1v34a1 1 0 1 1-2 0v-34a1 1 0 0 1 1-1zm6 10a1 1 0 0 1 1 1v14a1 1 0 1 1-2 0v-14a1 1 0 0 1 1-1zm6 5a1 1 0 0 1 1 1v4a1 1 0 1 1-2 0v-4a1 1 0 0 1 1-1zm6-6a1 1 0 0 1 1 1v16a1 1 0 1 1-2 0v-16a1 1 0 0 1 1-1zm6-3a1 1 0 0 1 1 1v22a1 1 0 1 1-2 0v-22a1 1 0 0 1 1-1z"/>
    </g>
</svg>
